<?xml version="1.0" encoding="UTF-8" standalone="no"?>
<svg
   xmlns:dc="http://purl.org/dc/elements/1.1/"
   xmlns:cc="http://creativecommons.org/ns#"
   xmlns:rdf="http://www.w3.org/1999/02/22-rdf-syntax-ns#"
   xmlns:svg="http://www.w3.org/2000/svg"
   xmlns="http://www.w3.org/2000/svg"
   xmlns:sodipodi="http://sodipodi.sourceforge.net/DTD/sodipodi-0.dtd"
   xmlns:inkscape="http://www.inkscape.org/namespaces/inkscape"
   width="330.0798mm"
   height="216.92661mm"
   viewBox="0 0 1247.5458 819.88013"
   version="1.1"
   xml:space="preserve"
   style="clip-rule:evenodd;fill-rule:evenodd;stroke-linecap:round;stroke-linejoin:round;stroke-miterlimit:1.5"
   id="svg30"
   sodipodi:docname="GLE.svg"
   inkscape:version="1.0.2 (e86c870879, 2021-01-15)"><path
     d="M 454.73225,360.95783 C 500.48522,349.94011 576.57618,244.74962 528.51715,155.1062 507.24099,115.42 462.53044,97.710497 433.04605,98.516947"
     style="fill:none;stroke:#024277;stroke-width:24.0364px;stroke-opacity:1"
     id="path28" /><metadata
     id="metadata36"><rdf:RDF><cc:Work
         rdf:about=""><dc:format>image/svg+xml</dc:format><dc:type
           rdf:resource="http://purl.org/dc/dcmitype/StillImage" /><dc:title></dc:title></cc:Work></rdf:RDF></metadata><defs
     id="defs34" /><sodipodi:namedview
     pagecolor="#ffffff"
     bordercolor="#666666"
     borderopacity="1"
     objecttolerance="10"
     gridtolerance="10"
     guidetolerance="10"
     inkscape:pageopacity="0"
     inkscape:pageshadow="2"
     inkscape:window-width="1920"
     inkscape:window-height="1016"
     id="namedview32"
     showgrid="false"
     lock-margins="true"
     fit-margin-top="5"
     fit-margin-left="5"
     fit-margin-right="5"
     fit-margin-bottom="5"
     inkscape:zoom="0.30172565"
     inkscape:cx="518.75801"
     inkscape:cy="566.10358"
     inkscape:window-x="0"
     inkscape:window-y="27"
     inkscape:window-maximized="1"
     inkscape:current-layer="svg30"
     inkscape:document-rotation="0"
     units="mm" /><path
     d="m 871.63083,765.10092 c -21.8561,0 -41.4061,-5.01385 -58.65104,-15.03949 -17.24389,-10.02563 -30.72923,-23.81087 -40.45386,-41.35679 -9.72465,-17.54484 -14.58751,-37.24587 -14.58751,-59.10196 0,-21.25411 4.91216,-40.40349 14.73747,-57.44813 9.82534,-17.04357 23.46062,-30.37786 40.90584,-40.00288 17.4453,-9.62506 37.0959,-14.43755 58.952,-14.43755 11.8305,0 22.5073,1.05289 32.0327,3.1587 9.5244,2.10582 17.2943,4.51154 23.3096,7.21826 6.0154,2.70671 10.1263,5.06315 12.3317,7.06826 l -13.2336,28.27312 c -12.4324,-10.02564 -30.7795,-15.03845 -55.0424,-15.03845 -16.041,0 -29.9773,3.50898 -41.8077,10.52691 -11.83043,7.01797 -20.85351,16.54232 -27.06921,28.57307 -6.21674,12.03182 -9.32403,25.46574 -9.32403,40.30387 0,16.84327 3.35795,31.8828 10.07597,45.11639 6.71697,13.23471 16.041,23.51096 27.97217,30.82988 11.93,7.31892 25.4154,10.97786 40.4538,10.97786 9.4248,0 18.4478,-1.15251 27.0703,-3.45861 8.6214,-2.30611 15.9403,-5.96504 21.9557,-10.97894 v -42.70959 h -45.4163 v -30.97984 h 78.8029 v 86.62315 c -7.2193,9.02308 -18.0965,16.59261 -32.6347,22.70869 -14.5372,6.11604 -31.3301,9.17407 -50.3798,9.17407 z"
     style="fill:#024277;fill-opacity:1;fill-rule:nonzero;stroke:none;stroke-width:1.0487;stroke-opacity:1"
     id="path2" /><path
     d="m 992.24243,541.01962 h 33.98857 v 190.99254 h 63.4636 v 30.07686 h -97.45217 z"
     style="fill:#024277;fill-opacity:1;fill-rule:nonzero;stroke:none;stroke-width:1.0487;stroke-opacity:1"
     id="path4" /><path
     d="m 1121.873,541.01962 h 96.8491 v 29.47601 h -63.4635 v 61.05777 h 51.1318 v 30.07691 h -51.1318 v 70.6828 h 73.3895 v 29.77591 H 1121.873 Z"
     style="fill:#024277;fill-opacity:1;fill-rule:nonzero;stroke:none;stroke-width:1.0487;stroke-opacity:1"
     id="path6" /><path
     d="M 338.87222,106.80488 C -284.30897,197.16142 216.19873,1248.1959 307.55049,552.1569"
     style="fill:none;stroke:#024277;stroke-width:24.0364px;stroke-opacity:1"
     id="path8" /><path
     d="M 307.00307,471.46209 C 305.62402,361.64893 360.1882,174.29123 493.29844,178.81325"
     style="fill:none;stroke:#024277;stroke-width:24.0364px;stroke-opacity:1"
     id="path10" /><path
     d="M 570.55769,178.81325 C 699.35771,177.0745 728.87141,414.6348 647.68165,527.82902"
     style="fill:none;stroke:#024277;stroke-width:24.0364px;stroke-opacity:1"
     id="path12" /><path
     d="M 281.47441,750.56587 C 433.25265,812.75622 553.40084,659.80348 612.36119,583.99561"
     style="fill:none;stroke:#024277;stroke-width:24.0364px;stroke-opacity:1"
     id="path14" /><path
     d="M 225.83214,718.28772 C 118.37015,613.42444 203.90789,499.38809 382.95039,502.85616"
     style="fill:none;stroke:#024277;stroke-width:24.0364px;stroke-opacity:1"
     id="path16" /><path
     d="m 474.35774,502.9065 c 294.2838,-4.70764 201.19853,342.22226 57.32754,227.6794"
     style="fill:none;stroke:#024277;stroke-width:24.0364px;stroke-opacity:1"
     id="path18" /><path
     d="m 417.10362,245.71338 c 3.68096,86.45955 -2.76544,377.65488 57.25411,428.83491"
     style="fill:none;stroke:#024277;stroke-width:24.0364px;stroke-opacity:1"
     id="path20" /><path
     d="M 407.40833,166.11762 C 397.2967,-0.40543278 161.58421,-19.482443 158.09411,144.60341"
     style="fill:none;stroke:#024277;stroke-width:24.0364px;stroke-opacity:1"
     id="path22" /><path
     d="m 158.09411,220.12075 c 1.78805,89.61092 47.77908,156.90222 123.38031,152.40953"
     style="fill:none;stroke:#024277;stroke-width:24.0364px;stroke-opacity:1"
     id="path24" /><path
     d="m 355.32958,372.66242 c 19.44405,-0.37856 24.39707,-0.60825 35.27638,-1.70204 4.25668,-0.4289 0,0 0,0"
     style="fill:none;stroke:#024277;stroke-width:24.0364px;stroke-opacity:1"
     id="path26" /></svg>
