<?xml version="1.0" encoding="UTF-8" standalone="no"?>
<svg
   xmlns:dc="http://purl.org/dc/elements/1.1/"
   xmlns:cc="http://creativecommons.org/ns#"
   xmlns:rdf="http://www.w3.org/1999/02/22-rdf-syntax-ns#"
   xmlns:svg="http://www.w3.org/2000/svg"
   xmlns="http://www.w3.org/2000/svg"
   xmlns:sodipodi="http://sodipodi.sourceforge.net/DTD/sodipodi-0.dtd"
   xmlns:inkscape="http://www.inkscape.org/namespaces/inkscape"
   width="1603.3846"
   height="1060.0566"
   viewBox="0 0 1603.3847 1060.0567"
   version="1.1"
   xml:space="preserve"
   style="clip-rule:evenodd;fill-rule:evenodd;stroke-linecap:round;stroke-linejoin:round;stroke-miterlimit:1.5"
   id="svg30"
   sodipodi:docname="GLEneg.svg"
   inkscape:version="1.0.1 (3bc2e813f5, 2020-09-07)"><metadata
     id="metadata36"><rdf:RDF><cc:Work
         rdf:about=""><dc:format>image/svg+xml</dc:format><dc:type
           rdf:resource="http://purl.org/dc/dcmitype/StillImage" /><dc:title></dc:title></cc:Work></rdf:RDF></metadata><defs
     id="defs34" /><sodipodi:namedview
     pagecolor="#ffffff"
     bordercolor="#666666"
     borderopacity="1"
     objecttolerance="10"
     gridtolerance="10"
     guidetolerance="10"
     inkscape:pageopacity="0"
     inkscape:pageshadow="2"
     inkscape:window-width="1920"
     inkscape:window-height="1016"
     id="namedview32"
     showgrid="false"
     lock-margins="true"
     fit-margin-top="80"
     fit-margin-left="80"
     fit-margin-right="80"
     fit-margin-bottom="80"
     inkscape:zoom="0.55001712"
     inkscape:cx="830.95396"
     inkscape:cy="578.39042"
     inkscape:window-x="0"
     inkscape:window-y="27"
     inkscape:window-maximized="1"
     inkscape:current-layer="svg30" /><rect
     style="fill:#024277;fill-opacity:1;stroke:#000000;stroke-width:1.01552;stroke-miterlimit:1.5;paint-order:markers fill stroke"
     id="rect861"
     width="1442.3691"
     height="899.04114"
     x="80.507759"
     y="80.507759" /><g
     id="g891"
     transform="translate(44.542593,14.078879)"><path
       d="m 1004.7455,871.11034 c -21.85611,0 -41.4061,-5.01385 -58.65103,-15.03949 -17.24389,-10.02563 -30.72922,-23.81087 -40.45386,-41.35679 -9.72465,-17.54484 -14.58751,-37.24587 -14.58751,-59.10196 0,-21.25411 4.91216,-40.40349 14.73747,-57.44813 9.82534,-17.04357 23.46062,-30.37786 40.90584,-40.00288 17.44526,-9.62506 37.09591,-14.43755 58.95199,-14.43755 11.8305,0 22.5073,1.05289 32.0327,3.1587 9.5244,2.10582 17.2943,4.51154 23.3096,7.21826 6.0154,2.70671 10.1263,5.06315 12.3317,7.06826 l -13.2336,28.27312 c -12.4324,-10.02564 -30.7795,-15.03845 -55.0424,-15.03845 -16.04097,0 -29.97724,3.50898 -41.80766,10.52691 -11.83046,7.01797 -20.85354,16.54232 -27.06924,28.57307 -6.21674,12.03182 -9.32403,25.46574 -9.32403,40.30387 0,16.84327 3.35795,31.8828 10.07597,45.11639 6.71697,13.23471 16.041,23.51096 27.97213,30.82988 11.93008,7.31892 25.4154,10.97786 40.45383,10.97786 9.4248,0 18.4478,-1.15251 27.0703,-3.45861 8.6214,-2.30611 15.9403,-5.96504 21.9557,-10.97894 v -42.70959 h -45.4163 v -30.97984 h 78.8029 v 86.62315 c -7.2193,9.02308 -18.0965,16.59261 -32.6347,22.70869 -14.5372,6.11604 -31.3301,9.17407 -50.3798,9.17407 z"
       style="fill:#ffffff;fill-opacity:1;fill-rule:nonzero;stroke:#ffffff;stroke-width:1.0487;stroke-opacity:1"
       id="path2" /><path
       d="m 1125.3571,647.02904 h 33.9886 v 190.99254 h 63.4636 v 30.07686 h -97.4522 z"
       style="fill:#ffffff;fill-opacity:1;fill-rule:nonzero;stroke:#ffffff;stroke-width:1.0487;stroke-opacity:1"
       id="path4" /><path
       d="m 1254.9877,647.02904 h 96.8491 v 29.47601 h -63.4635 v 61.05777 h 51.1318 v 30.07691 h -51.1318 v 70.6828 h 73.3895 v 29.77591 h -106.7751 z"
       style="fill:#ffffff;fill-opacity:1;fill-rule:nonzero;stroke:#ffffff;stroke-width:1.0487;stroke-opacity:1"
       id="path6" /><path
       d="m 471.9869,212.8143 c -623.18118,90.35654 -122.67348,1141.391 -31.32173,445.35202"
       style="fill:none;stroke:#ffffff;stroke-width:24.0364px;stroke-opacity:1"
       id="path8" /><path
       d="M 440.11775,577.47151 C 438.73871,467.65835 493.30289,280.30065 626.41312,284.82267"
       style="fill:none;stroke:#ffffff;stroke-width:24.0364px;stroke-opacity:1"
       id="path10" /><path
       d="m 703.67237,284.82267 c 128.80002,-1.73875 158.31373,235.82155 77.12396,349.01577"
       style="fill:none;stroke:#ffffff;stroke-width:24.0364px;stroke-opacity:1"
       id="path12" /><path
       d="M 414.5891,856.57529 C 566.36733,918.76564 686.51552,765.8129 745.47588,690.00503"
       style="fill:none;stroke:#ffffff;stroke-width:24.0364px;stroke-opacity:1"
       id="path14" /><path
       d="M 358.94683,824.29714 C 251.48484,719.43386 337.02258,605.39751 516.06507,608.86558"
       style="fill:none;stroke:#ffffff;stroke-width:24.0364px;stroke-opacity:1"
       id="path16" /><path
       d="m 607.47242,608.91592 c 294.2838,-4.70764 201.19853,342.22226 57.32754,227.6794"
       style="fill:none;stroke:#ffffff;stroke-width:24.0364px;stroke-opacity:1"
       id="path18" /><path
       d="m 550.21831,351.7228 c 3.68095,86.45955 -2.76544,377.65488 57.25411,428.83491"
       style="fill:none;stroke:#ffffff;stroke-width:24.0364px;stroke-opacity:1"
       id="path20" /><path
       d="M 540.52302,272.12704 C 530.41138,105.60399 294.69889,86.526977 291.20879,250.61283"
       style="fill:none;stroke:#ffffff;stroke-width:24.0364px;stroke-opacity:1"
       id="path22" /><path
       d="m 291.20879,326.13017 c 1.78805,89.61092 47.77908,156.90222 123.38031,152.40953"
       style="fill:none;stroke:#ffffff;stroke-width:24.0364px;stroke-opacity:1"
       id="path24" /><path
       d="m 488.44426,478.67184 c 19.44406,-0.37856 24.39708,-0.60825 35.27639,-1.70204 4.25668,-0.4289 0,0 0,0"
       style="fill:none;stroke:#ffffff;stroke-width:24.0364px;stroke-opacity:1"
       id="path26" /><path
       d="m 587.84693,466.96725 c 45.75297,-11.01772 121.84393,-116.20821 73.7849,-205.85163 -21.27616,-39.6862 -65.98671,-57.3957 -95.4711,-56.58925"
       style="fill:none;stroke:#ffffff;stroke-width:24.0364px;stroke-opacity:1"
       id="path28" /></g></svg>
